<?xml version="1.0" encoding="UTF-8" standalone="no"?>
<svg
   xmlns:dc="http://purl.org/dc/elements/1.1/"
   xmlns:cc="http://creativecommons.org/ns#"
   xmlns:rdf="http://www.w3.org/1999/02/22-rdf-syntax-ns#"
   xmlns:svg="http://www.w3.org/2000/svg"
   xmlns="http://www.w3.org/2000/svg"
   xmlns:sodipodi="http://sodipodi.sourceforge.net/DTD/sodipodi-0.dtd"
   xmlns:inkscape="http://www.inkscape.org/namespaces/inkscape"
   width="83.60833mm"
   height="83.60833mm"
   viewBox="0 0 83.60833 83.60833"
   version="1.1"
   id="svg8"
   inkscape:version="1.0.1 (1.0.1+r73)"
   sodipodi:docname="logo_cv.svg">
  <defs
     id="defs2" />
  <sodipodi:namedview
     id="base"
     pagecolor="#ffffff"
     bordercolor="#666666"
     borderopacity="1.0"
     inkscape:pageopacity="0.0"
     inkscape:pageshadow="2"
     inkscape:zoom="3.8239149"
     inkscape:cx="200.79146"
     inkscape:cy="51.471245"
     inkscape:document-units="mm"
     inkscape:current-layer="layer1"
     inkscape:document-rotation="0"
     showgrid="false"
     inkscape:window-width="1680"
     inkscape:window-height="987"
     inkscape:window-x="0"
     inkscape:window-y="30"
     inkscape:window-maximized="1" />
  <metadata
     id="metadata5">
    <rdf:RDF>
      <cc:Work
         rdf:about="">
        <dc:format>image/svg+xml</dc:format>
        <dc:type
           rdf:resource="http://purl.org/dc/dcmitype/StillImage" />
        <dc:title></dc:title>
      </cc:Work>
    </rdf:RDF>
  </metadata>
  <g
     inkscape:label="Layer 1"
     inkscape:groupmode="layer"
     id="layer1"
     transform="translate(-9.2479019,-4.5218883)">
    <path
       style="fill:#000000;fill-opacity:0;stroke-width:0.491046"
       d="m 62.922685,87.232241 c 0.09002,-0.245499 1.991472,-2.653372 4.225438,-5.35083 5.717092,-6.903246 12.834415,-13.080776 20.490563,-17.78493 8.007781,-4.920207 19.843114,-9.659029 27.702124,-11.09183 5.30425,-0.967034 34.58909,-1.589991 76.76799,-1.633036 l 29.83107,-0.03044 v 18.168716 18.168716 h -79.59043 c -47.541268,0 -79.524526,-0.17974 -79.426755,-0.446363 z"
       id="path42"
       transform="matrix(0.26458333,0,0,0.26458333,9.2479019,4.5218883)" />
    <path
       style="fill:#338fa1;fill-opacity:1;stroke-width:0.491046"
       d="m 62.922685,87.232241 c 0.09002,-0.245499 1.991472,-2.653372 4.225438,-5.35083 5.717092,-6.903246 12.834415,-13.080776 20.490563,-17.78493 8.007781,-4.920207 19.843114,-9.659029 27.702124,-11.09183 5.30425,-0.967034 34.58909,-1.589991 76.76799,-1.633036 l 29.83107,-0.03044 v 18.168716 18.168716 h -79.59043 c -47.541268,0 -79.524526,-0.17974 -79.426755,-0.446363 z"
       id="path44"
       transform="matrix(0.26458333,0,0,0.26458333,9.2479019,4.5218883)" />
    <path
       style="fill:#338fa1;fill-opacity:1;stroke-width:0.491046"
       d="m 49.091546,130.87133 c 0,-0.55079 0.235745,-3.1472 0.523878,-5.76979 0.998268,-9.08625 3.284255,-17.70462 7.093383,-26.742677 l 1.810844,-4.296656 h 59.121979 59.12197 v 18.905283 18.90529 H 112.92757 49.091546 Z"
       id="path46"
       transform="matrix(0.26458333,0,0,0.26458333,9.2479019,4.5218883)" />
    <path
       style="fill:#338fa1;fill-opacity:1;stroke-width:0.491046"
       d="m 49.091546,155.85644 v -18.73737 l 41.358768,0.35216 c 22.747326,0.19369 41.474606,0.46785 41.616186,0.60924 0.14157,0.14139 0.33327,8.41474 0.42599,18.38521 l 0.16858,18.12813 H 90.876309 49.091546 Z"
       id="path48"
       transform="matrix(0.26458333,0,0,0.26458333,9.2479019,4.5218883)" />
    <path
       style="fill:#338fa1;fill-opacity:1;stroke-width:0.491046"
       d="m 49.091546,198.90061 v -18.90529 h 19.396332 19.396331 v 18.90529 18.90528 H 68.487878 49.091546 Z"
       id="path50"
       transform="matrix(0.26458333,0,0,0.26458333,9.2479019,4.5218883)" />
    <path
       style="fill:#0d7388;fill-opacity:1;stroke-width:0.523024"
       d="m 94.356034,242.6522 v -18.32146 l 72.831116,0.0142 c 40.05712,0.008 75.04364,0.22815 77.74782,0.48968 7.29248,0.70527 7.40315,1.01519 2.34893,6.57827 -11.97287,13.17834 -27.21987,22.41862 -44.11525,26.7356 -6.62137,1.69184 -18.12583,2.10827 -69.45505,2.51406 l -39.357566,0.31114 z"
       id="path210"
       transform="matrix(0.26458333,0,0,0.26458333,9.2479019,4.5218883)" />
    <path
       style="fill:#0d7388;fill-opacity:1;stroke-width:0.523024"
       d="m 139.33611,199.48709 v -18.04433 h 63.36481 63.36482 l -0.32198,4.90158 c -0.17708,2.69588 -0.69871,6.75585 -1.15917,9.02217 -0.97581,4.80277 -4.24929,14.83367 -6.25186,19.15753 l -1.39285,3.00738 h -58.80189 -58.80188 z"
       id="path212"
       transform="matrix(0.26458333,0,0,0.26458333,9.2479019,4.5218883)" />
    <path
       style="fill:#0d7388;fill-opacity:1;stroke-width:0.523024"
       d="m 183.27015,156.33759 v -18.30584 h 41.31891 41.31891 v 18.30584 18.30585 h -41.31891 -41.31891 z"
       id="path214"
       transform="matrix(0.26458333,0,0,0.26458333,9.2479019,4.5218883)" />
    <path
       style="fill:#0d7388;fill-opacity:1;stroke-width:0.523024"
       d="M 228.25023,112.40356 V 94.097716 h 18.82887 18.82887 v 18.305844 18.30585 H 247.0791 228.25023 Z"
       id="path216"
       transform="matrix(0.26458333,0,0,0.26458333,9.2479019,4.5218883)" />
    <path
       style="fill:#70be44;fill-opacity:1;stroke-width:0.523024"
       d="M 228.25023,69.51558 V 51.209733 h 19.35189 19.3519 V 69.51558 87.821426 h -19.3519 -19.35189 z"
       id="path218"
       transform="matrix(0.26458333,0,0,0.26458333,9.2479019,4.5218883)" />
    <path
       style="fill:#70be44;fill-opacity:1;stroke-width:0.523024"
       d="M 183.27015,112.92659 V 94.097716 h 19.35189 19.3519 v 18.828874 18.82887 h -19.3519 -19.35189 z"
       id="path220"
       transform="matrix(0.26458333,0,0,0.26458333,9.2479019,4.5218883)" />
    <path
       style="fill:#70be44;fill-opacity:1;stroke-width:0.523024"
       d="m 138.487,156.23159 c 0.20007,-10.12652 0.41512,-18.46321 0.47788,-18.52598 0.0628,-0.0628 8.6451,-0.19158 19.07184,-0.28626 l 18.95771,-0.17214 -2.9e-4,18.69812 -2.8e-4,18.69811 h -19.43531 -19.43531 z"
       id="path222"
       transform="matrix(0.26458333,0,0,0.26458333,9.2479019,4.5218883)" />
    <path
       style="fill:#70be44;fill-opacity:1;stroke-width:0.523024"
       d="m 94.356034,198.90549 v -18.62593 l 18.528086,0.19364 c 10.19045,0.1065 18.72228,0.38753 18.95963,0.62451 0.23734,0.23697 0.50187,8.5315 0.58783,18.43229 l 0.15629,18.00142 H 113.47195 94.356034 Z"
       id="path224"
       transform="matrix(0.26458333,0,0,0.26458333,9.2479019,4.5218883)" />
    <path
       style="fill:#70be44;fill-opacity:1;stroke-width:0.523024"
       d="m 49.375953,242.63659 v -18.30585 h 19.090383 19.090383 v 18.30585 18.30584 H 68.466336 49.375953 Z"
       id="path226"
       transform="matrix(0.26458333,0,0,0.26458333,9.2479019,4.5218883)" />
  </g>
</svg>
