<?xml version="1.0" encoding="UTF-8" standalone="no"?>
<svg
   xmlns:dc="http://purl.org/dc/elements/1.1/"
   xmlns:cc="http://creativecommons.org/ns#"
   xmlns:rdf="http://www.w3.org/1999/02/22-rdf-syntax-ns#"
   xmlns:svg="http://www.w3.org/2000/svg"
   xmlns="http://www.w3.org/2000/svg"
   xmlns:sodipodi="http://sodipodi.sourceforge.net/DTD/sodipodi-0.dtd"
   xmlns:inkscape="http://www.inkscape.org/namespaces/inkscape"
   width="11.234624mm"
   height="10.735823mm"
   viewBox="0 0 11.234624 10.735823"
   version="1.1"
   id="svg8"
   inkscape:version="1.0.1 (1.0.1+r73)"
   sodipodi:docname="icon_cv.svg">
  <defs
     id="defs2" />
  <sodipodi:namedview
     id="base"
     pagecolor="#ffffff"
     bordercolor="#666666"
     borderopacity="1.0"
     inkscape:pageopacity="0.0"
     inkscape:pageshadow="2"
     inkscape:zoom="1.9119575"
     inkscape:cx="-58.212964"
     inkscape:cy="20.272523"
     inkscape:document-units="mm"
     inkscape:current-layer="layer1"
     inkscape:document-rotation="0"
     showgrid="false"
     inkscape:window-width="1680"
     inkscape:window-height="987"
     inkscape:window-x="0"
     inkscape:window-y="30"
     inkscape:window-maximized="1" />
  <metadata
     id="metadata5">
    <rdf:RDF>
      <cc:Work
         rdf:about="">
        <dc:format>image/svg+xml</dc:format>
        <dc:type
           rdf:resource="http://purl.org/dc/dcmitype/StillImage" />
        <dc:title />
      </cc:Work>
    </rdf:RDF>
  </metadata>
  <g
     inkscape:label="Layer 1"
     inkscape:groupmode="layer"
     id="layer1"
     transform="translate(-46.363105,-40.453246)">
    <path
       style="fill:#000000;fill-opacity:0;stroke-width:0.0204338"
       d="m 55.95271,48.675808 c -0.0038,0.01016 -0.08319,0.109994 -0.176493,0.221825 -0.238802,0.286182 -0.53609,0.542279 -0.855885,0.737297 -0.334481,0.203973 -0.828841,0.400427 -1.157107,0.459825 -0.221557,0.04009 -1.444774,0.06592 -3.206573,0.0677 l -1.246032,0.0013 v -0.753197 -0.753207 h 3.324464 c 1.985781,0 3.321711,0.0074 3.317626,0.0185 z"
       id="path42" />
    <path
       style="fill:#338fa1;fill-opacity:1;stroke-width:0.0204338"
       d="m 55.95271,48.675808 c -0.0038,0.01016 -0.08319,0.109994 -0.176493,0.221825 -0.238802,0.286182 -0.53609,0.542279 -0.855885,0.737297 -0.334481,0.203973 -0.828841,0.400427 -1.157107,0.459825 -0.221557,0.04009 -1.444774,0.06592 -3.206573,0.0677 l -1.246032,0.0013 v -0.753197 -0.753207 h 3.324464 c 1.985781,0 3.321711,0.0074 3.317626,0.0185 z"
       id="path44" />
    <path
       style="fill:#338fa1;fill-opacity:1;stroke-width:0.0204338"
       d="m 56.530434,46.866695 c 0,0.02283 -0.0099,0.130471 -0.02189,0.239194 -0.0417,0.376682 -0.137175,0.733966 -0.296288,1.108651 l -0.07563,0.178122 h -2.469504 -2.469503 v -0.783741 -0.783743 h 2.666408 2.666409 z"
       id="path46" />
    <path
       style="fill:#338fa1;fill-opacity:1;stroke-width:0.0204338"
       d="m 56.530434,45.830906 v 0.776781 l -1.727543,-0.01461 c -0.950147,-0.008 -1.732379,-0.0194 -1.738293,-0.02526 -0.0058,-0.0059 -0.01397,-0.348844 -0.0178,-0.762182 l -0.007,-0.751524 h 1.745334 1.745336 z"
       id="path48" />
    <path
       style="fill:#338fa1;fill-opacity:1;stroke-width:0.0204338"
       d="M 56.530434,44.046457 V 44.8302 h -0.81018 -0.810177 v -0.783743 -0.783742 h 0.810177 0.81018 z"
       id="path50" />
    <path
       style="fill:#0d7388;fill-opacity:1;stroke-width:0.0217643"
       d="m 54.639752,42.23268 v 0.759539 l -3.04213,-5.9e-4 c -1.673171,-3.31e-4 -3.134545,-0.0094 -3.247499,-0.0203 -0.304603,-0.02924 -0.309227,-0.04208 -0.09812,-0.272709 0.500103,-0.546324 1.136965,-0.929392 1.842678,-1.108357 0.276571,-0.07013 0.757109,-0.0874 2.901113,-0.10422 l 1.643952,-0.0129 z"
       id="path210" />
    <path
       style="fill:#0d7388;fill-opacity:1;stroke-width:0.0217643"
       d="m 52.76095,44.022143 v 0.748051 h -2.646727 -2.646724 l 0.01352,-0.203202 c 0.0074,-0.111765 0.0292,-0.280072 0.04841,-0.374025 0.04075,-0.199104 0.177492,-0.614948 0.261138,-0.794199 l 0.05818,-0.124671 h 2.456135 2.456133 z"
       id="path212" />
    <path
       style="fill:#0d7388;fill-opacity:1;stroke-width:0.0217643"
       d="m 50.92584,45.810959 v 0.758892 h -1.725876 -1.725875 v -0.758892 -0.758892 h 1.725875 1.725876 z"
       id="path214" />
    <path
       style="fill:#0d7388;fill-opacity:1;stroke-width:0.0217643"
       d="m 49.047039,47.632299 v 0.758892 h -0.786475 -0.786475 v -0.758892 -0.758892 h 0.786475 0.786475 z"
       id="path216" />
    <path
       style="fill:#70be44;fill-opacity:1;stroke-width:0.0217643"
       d="m 49.047039,49.410274 v 0.758892 h -0.808322 -0.808323 v -0.758892 -0.758891 h 0.808323 0.808322 z"
       id="path218" />
    <path
       style="fill:#70be44;fill-opacity:1;stroke-width:0.0217643"
       d="m 50.92584,47.610616 v 0.780575 h -0.808321 -0.808322 v -0.780575 -0.780574 h 0.808322 0.808322 z"
       id="path220" />
    <path
       style="fill:#70be44;fill-opacity:1;stroke-width:0.0217643"
       d="m 52.796416,45.815354 c -0.0085,0.419807 -0.01733,0.765415 -0.01997,0.768018 -0.0025,0.0027 -0.361104,0.0079 -0.796625,0.01193 l -0.791856,0.0071 1.3e-5,-0.775154 1.1e-5,-0.775154 h 0.811805 0.811806 z"
       id="path222" />
    <path
       style="fill:#70be44;fill-opacity:1;stroke-width:0.0217643"
       d="m 54.639752,44.046255 v 0.772159 l -0.773913,-0.008 c -0.425651,-0.0044 -0.782023,-0.01607 -0.791937,-0.02588 -0.0099,-0.0098 -0.02097,-0.353683 -0.02456,-0.764133 l -0.0065,-0.74627 h 0.798465 0.798465 z"
       id="path224" />
    <path
       style="fill:#70be44;fill-opacity:1;stroke-width:0.0217643"
       d="m 56.518553,42.233326 v 0.758893 h -0.797398 -0.797399 v -0.758893 -0.758891 h 0.797399 0.797398 z"
       id="path226" />
  </g>
</svg>
